# xmcd
#
# Track frame offsets: 
#        150
#        15006
#        25255
#        35527
#        45711
#        57581
#        70298
#        81038
#        92752
#        109676
#        119842
#        128912
#
# Disc length: 1879 seconds
#
# Revision: 1
# Processed by: cddbd v1.5.2PL0 Copyright (c) Steve Scherf et al.
# Submitted via: ExactAudioCopyFreeDBPlugin 1.0
#
DISCID=9d07550c
DTITLE=Ike and Tina Turner  - Ike and Tina Turner’s Kings Of Rhythm Dance
DYEAR=1961
DGENRE=R&B
TTITLE0=The Gulley
TTITLE1=Twistaroo
TTITLE2=Trackdown Twist
TTITLE3=Potato Mash
TTITLE4=It's Gonna Work Out Fine
TTITLE5=Steel Guitar Rag
TTITLE6=Doublemint
TTITLE7=The Rooster
TTITLE8=Prancing
TTITLE9=Katanga
TTITLE10=The Groove
TTITLE11=Going Home
EXTD=
EXTT0=
EXTT1=
EXTT2=
EXTT3=
EXTT4=
EXTT5=
EXTT6=
EXTT7=
EXTT8=
EXTT9=
EXTT10=
EXTT11=
PLAYORDER=
